<svg width="381" height="41" viewBox="0 0 381 41" fill="none" xmlns="http://www.w3.org/2000/svg">
<path d="M100.137 34.5455C98.7214 36.2745 96.7208 37.6203 94.1348 38.5829C91.5488 39.5276 88.6832 40 85.5381 40C82.2357 40 79.3352 39.2692 76.8366 37.8075C74.3554 36.328 72.4334 34.1889 71.0705 31.3904C69.7251 28.5918 69.0349 25.303 69 21.5241V18.877C69 14.9911 69.6378 11.631 70.9133 8.79679C72.2063 5.94474 74.0584 3.77005 76.4697 2.27273C78.8984 0.757576 81.7378 0 84.9877 0C89.5132 0 93.0515 1.10517 95.6025 3.31551C98.1536 5.50802 99.665 8.70766 100.137 12.9144H92.4836C92.1341 10.6863 91.3566 9.05526 90.151 8.02139C88.9628 6.98752 87.3204 6.47059 85.2236 6.47059C82.5502 6.47059 80.5147 7.49554 79.1168 9.54545C77.719 11.5954 77.0113 14.6435 76.9939 18.6898V21.1765C76.9939 25.2585 77.7539 28.3422 79.2741 30.4278C80.7942 32.5134 83.022 33.5561 85.9575 33.5561C88.9104 33.5561 91.0159 32.9144 92.2739 31.631V24.9198H85.1188V19.0107H100.137V34.5455Z" fill="#3B4256"/>
<path d="M120.659 25.2139H114.395V39.4652H106.532V0.534759H120.711C125.219 0.534759 128.696 1.55971 131.142 3.60963C133.589 5.65954 134.812 8.55615 134.812 12.2995C134.812 14.9554 134.244 17.1747 133.108 18.9572C131.99 20.7219 130.286 22.1301 127.997 23.1818L136.253 39.0909V39.4652H127.814L120.659 25.2139ZM114.395 18.7166H120.737C122.712 18.7166 124.241 18.2086 125.324 17.1925C126.407 16.1586 126.949 14.7415 126.949 12.9412C126.949 11.1052 126.433 9.66132 125.403 8.60963C124.389 7.55793 122.825 7.03209 120.711 7.03209H114.395V18.7166Z" fill="#3B4256"/>
<path d="M162.358 31.4438H148.572L145.951 39.4652H137.59L151.795 0.534759H159.082L173.366 39.4652H165.005L162.358 31.4438ZM150.695 24.9465H160.235L155.439 10.3743L150.695 24.9465Z" fill="#3B4256"/>
<path d="M207.962 39.4652H200.099L184.793 13.8503V39.4652H176.93V0.534759H184.793L200.126 26.2032V0.534759H207.962V39.4652Z" fill="#3B4256"/>
<path d="M214.829 39.4652V0.534759H226.571C229.926 0.534759 232.922 1.31016 235.561 2.86096C238.216 4.39394 240.287 6.58645 241.772 9.4385C243.257 12.2727 244 15.4991 244 19.1176V20.9091C244 24.5276 243.266 27.7451 241.798 30.5615C240.348 33.3779 238.295 35.5615 235.639 37.1123C232.983 38.6631 229.987 39.4474 226.649 39.4652H214.829ZM222.692 7.03209V33.0214H226.492C229.567 33.0214 231.917 31.9964 233.542 29.9465C235.167 27.8966 235.997 24.9643 236.032 21.1497V19.0909C236.032 15.1337 235.229 12.139 233.621 10.107C232.014 8.05704 229.663 7.03209 226.571 7.03209H222.692Z" fill="#3B4256"/>
<path d="M286.729 26.4973C286.455 30.6863 285.051 33.984 282.518 36.3904C280.001 38.7968 276.677 40 272.546 40C268.028 40 264.47 38.3244 261.872 34.9733C259.291 31.6043 258 26.9875 258 21.123V18.7433C258 15 258.597 11.7023 259.791 8.85027C260.985 5.99822 262.687 3.81462 264.898 2.29947C267.125 0.766488 269.706 0 272.643 0C276.709 0 279.984 1.20321 282.469 3.60963C284.954 6.01604 286.39 9.39394 286.777 13.7433H279.517C279.339 11.2299 278.702 9.41176 277.604 8.28877C276.523 7.14795 274.87 6.57754 272.643 6.57754C270.223 6.57754 268.407 7.54011 267.197 9.46524C266.003 11.3725 265.39 14.3405 265.358 18.369V21.3102C265.358 25.5169 265.931 28.5918 267.076 30.5348C268.238 32.4777 270.061 33.4492 272.546 33.4492C274.789 33.4492 276.459 32.8877 277.556 31.7647C278.669 30.6239 279.307 28.8681 279.468 26.4973H286.729Z" fill="#3B4256"/>
<path d="M320.444 20.8824C320.444 24.7148 319.831 28.0749 318.604 30.9626C317.378 33.8503 315.619 36.0784 313.328 37.6471C311.053 39.2157 308.439 40 305.486 40C302.566 40 299.96 39.2246 297.669 37.6738C295.378 36.123 293.603 33.9127 292.344 31.0428C291.086 28.1551 290.448 24.8396 290.432 21.0963V19.1711C290.432 15.3387 291.053 11.9697 292.296 9.06417C293.554 6.14082 295.321 3.90374 297.596 2.35294C299.887 0.784314 302.501 0 305.438 0C308.375 0 310.981 0.784314 313.256 2.35294C315.547 3.90374 317.314 6.14082 318.556 9.06417C319.815 11.9697 320.444 15.3298 320.444 19.1444V20.8824ZM313.086 19.1176C313.086 15.0356 312.425 11.934 311.102 9.81283C309.778 7.69162 307.891 6.63102 305.438 6.63102C303.002 6.63102 301.122 7.68271 299.799 9.78609C298.476 11.8717 297.806 14.9376 297.79 18.984V20.8824C297.79 24.8574 298.451 27.9412 299.774 30.1337C301.098 32.3262 303.002 33.4225 305.486 33.4225C307.923 33.4225 309.795 32.3708 311.102 30.2674C312.408 28.1462 313.07 25.0624 313.086 21.016V19.1176Z" fill="#3B4256"/>
<path d="M338.766 25.2139H332.981V39.4652H325.72V0.534759H338.814C342.977 0.534759 346.188 1.55971 348.447 3.60963C350.706 5.65954 351.835 8.55615 351.835 12.2995C351.835 14.9554 351.311 17.1747 350.262 18.9572C349.229 20.7219 347.656 22.1301 345.542 23.1818L353.166 39.0909V39.4652H345.373L338.766 25.2139ZM332.981 18.7166H338.838C340.662 18.7166 342.073 18.2086 343.074 17.1925C344.074 16.1586 344.574 14.7415 344.574 12.9412C344.574 11.1052 344.098 9.66132 343.146 8.60963C342.211 7.55793 340.766 7.03209 338.814 7.03209H332.981V18.7166Z" fill="#3B4256"/>
<path d="M378.58 22.5936H364.639V33.0214H381V39.4652H357.378V0.534759H380.952V7.03209H364.639V16.3102H378.58V22.5936Z" fill="#3B4256"/>
<path d="M48 37L24 10L0 37L5.41726e-07 22.7895L48 22.7895L48 37Z" fill="#3B4256"/>
<path fill-rule="evenodd" clip-rule="evenodd" d="M24.5 37.1567C33.6992 37.1567 41.1567 29.6992 41.1567 20.5C41.1567 11.3008 33.6992 3.8433 24.5 3.8433C15.3008 3.8433 7.8433 11.3008 7.8433 20.5C7.8433 29.6992 15.3008 37.1567 24.5 37.1567ZM24.5 41C35.8218 41 45 31.8218 45 20.5C45 9.17816 35.8218 0 24.5 0C13.1782 0 4 9.17816 4 20.5C4 31.8218 13.1782 41 24.5 41Z" fill="#3B4256"/>
</svg>
