<svg width="24" height="24" viewBox="0 0 24 24" fill="none" xmlns="http://www.w3.org/2000/svg">
<g opacity="0.8">
<mask id="mask0" mask-type="alpha" maskUnits="userSpaceOnUse" x="0" y="0" width="24" height="24">
<path fill-rule="evenodd" clip-rule="evenodd" d="M0 0V23.9788H23.979V0H0L0 0Z" fill="white"/>
</mask>
<g mask="url(#mask0)">
<path fill-rule="evenodd" clip-rule="evenodd" d="M18.7763 9.9984L17.1923 10.8336C17.0208 10.4767 16.81 10.2266 16.5604 10.0839C16.3104 9.94167 16.0713 9.87011 15.8431 9.87011C14.7727 9.87011 14.2377 10.5766 14.2377 11.9895C14.2377 12.6319 14.3729 13.1455 14.6444 13.5308C14.9153 13.9165 15.3151 14.1089 15.8431 14.1089C16.5425 14.1089 17.0348 13.7664 17.3206 13.0813L18.8191 13.8305C18.4905 14.4161 18.0484 14.8765 17.4916 15.2116C16.9353 15.5472 16.3283 15.7148 15.672 15.7148C14.5872 15.7148 13.7201 15.3866 13.0708 14.7299C12.4211 14.0736 12.0964 13.1599 12.0964 11.9895C12.0964 10.8476 12.4285 9.94167 13.0922 9.27055C13.7559 8.59942 14.5942 8.26429 15.6079 8.26429C17.0919 8.26429 18.1484 8.84247 18.7763 9.9984ZM11.8608 9.9984L10.2554 10.8336C10.0839 10.4767 9.87316 10.2266 9.62356 10.0839C9.37396 9.94167 9.14182 9.87011 8.928 9.87011C7.8576 9.87011 7.32218 10.5766 7.32218 11.9895C7.32218 12.6319 7.45789 13.1455 7.72887 13.5308C7.99985 13.9165 8.39956 14.1089 8.928 14.1089C9.62705 14.1089 10.1197 13.7664 10.4051 13.0813L11.8826 13.8305C11.5684 14.4161 11.1329 14.8765 10.5761 15.2116C10.0198 15.5472 9.40582 15.7148 8.73513 15.7148C7.66473 15.7148 6.80116 15.3866 6.14487 14.7299C5.48815 14.0736 5.15956 13.1599 5.15956 11.9895C5.15956 10.8476 5.49164 9.94167 6.15535 9.27055C6.81905 8.59942 7.65731 8.26429 8.67098 8.26429C10.1555 8.26429 11.2189 8.84247 11.8608 9.9984ZM12.0109 2.16218C9.27055 2.16218 6.96524 3.11869 5.09542 5.03127C4.15375 5.98778 3.42895 7.06211 2.92233 8.25338C2.41571 9.44553 2.16262 10.6909 2.16262 11.9895C2.16262 13.2742 2.41571 14.5126 2.92233 15.7039C3.42895 16.896 4.15375 17.9594 5.09542 18.8941C6.03753 19.8292 7.10095 20.5427 8.28567 21.0349C9.46996 21.5276 10.7119 21.7737 12.0109 21.7737C13.2956 21.7737 14.5405 21.5241 15.7471 21.0244C16.9527 20.5248 18.041 19.8039 19.0119 18.8618C20.8817 17.0352 21.8164 14.7443 21.8164 11.9895C21.8164 10.6621 21.5738 9.40625 21.0886 8.22153C20.6033 7.0368 19.8964 5.9808 18.9692 5.05265C17.0422 3.12567 14.7225 2.16218 12.0109 2.16218ZM11.9681 0C15.322 0 18.1767 1.17076 20.5318 3.51142C21.6593 4.63898 22.5155 5.92713 23.1011 7.37585C23.6863 8.82458 23.9791 10.3623 23.9791 11.9895C23.9791 13.6311 23.6897 15.1689 23.112 16.6032C22.5338 18.0375 21.6807 19.3047 20.5532 20.4035C19.3828 21.5594 18.0554 22.4448 16.5713 23.0583C15.0864 23.6719 13.5526 23.9791 11.9681 23.9791C10.3837 23.9791 8.86735 23.6758 7.41862 23.0688C5.96945 22.4623 4.67084 21.5847 3.52189 20.4353C2.37295 19.2868 1.49891 17.9913 0.899345 16.55C0.299782 15.1082 0 13.5884 0 11.9895C0 10.4051 0.303273 8.88175 0.910255 7.41862C1.51636 5.95549 2.39782 4.64596 3.55418 3.4896C5.83767 1.16335 8.64218 0 11.9681 0Z" fill="#DDE1E6"/>
</g>
</g>
</svg>
